<?xml version="1.0" encoding="UTF-8"?>
<!-- Created with Inkscape (http://www.inkscape.org/) -->
<svg width="495" height="260" version="1.0" xmlns="http://www.w3.org/2000/svg" xmlns:cc="http://creativecommons.org/ns#" xmlns:dc="http://purl.org/dc/elements/1.1/" xmlns:rdf="http://www.w3.org/1999/02/22-rdf-syntax-ns#">
 <metadata>
  <rdf:RDF>
   <cc:Work rdf:about="">
    <dc:format>image/svg+xml</dc:format>
    <dc:type rdf:resource="http://purl.org/dc/dcmitype/StillImage"/>
    <dc:title/>
   </cc:Work>
  </rdf:RDF>
 </metadata>
 <g transform="translate(-42.644 26.984)">
  <g transform="rotate(90 156.62 119.38)" stroke-dashoffset="1.1248" stroke-linecap="round" stroke-linejoin="round" stroke-width="1.063">
   <path d="m55.062 182.44 25.625 0.125 70.531-122.72 101 168.31 12.551-22.893l-113.2-192.01z" fill="#d40000" stroke="#d40000"/>
   <path d="m15.625 206.06 11.875 22.375 224.8-0.15416-101.07-168.42-12.684 22.075 73.186 123.99z" fill="#a00" stroke="#a00"/>
   <path d="m124.06 12.991-108.42 193.03 196.13-0.05697-13.884-23.456-142.93 0.02015 96.725-169.28z" fill="#800000" stroke="#800000"/>
  </g>
  <g aria-label="Paradoxo Nerd">
   <path d="m292.97 58.834q-1.9062 1.4297-4.2096 1.4297h-5.3216v54.408h-3.8125v-113.42h12.549q2.7005 0 2.7005 3.4154v48.371q0 4.2891-1.9062 5.7982zm-1.9062-6.3542v-45.909q0-1.5091-0.79427-1.5091h-6.8307v51.389h5.3216q2.3034 0 2.3034-3.9714z"/>
   <path d="m329.9 73.21 3.3359 41.461h-3.8125l-2.7005-37.728h-8.4987l-3.1771 37.728h-4.2891l10.484-113.42h2.8594l5.7982 71.882zm-3.4948-0.07943-3.5742-49.88-4.2096 49.88z"/>
   <path d="m353.02 114.67h-3.8125v-113.42h12.549q2.7005 0 2.7005 3.4154v48.371q0 4.2891-2.4622 4.9245l1.2708 0.55599q1.1914 0.55599 1.1914 4.0508v52.104h-3.8125v-51.23q0-3.1771-2.3034-3.1771h-5.3216zm7.625-62.191v-45.909q0-1.5091-0.79427-1.5091h-6.8307v51.389h5.3216q2.3034 0 2.3034-3.9714z"/>
   <path d="m399.48 73.21 3.3359 41.461h-3.8125l-2.7005-37.728h-8.4987l-3.1771 37.728h-4.2891l10.484-113.42h2.8594l5.7982 71.882zm-3.4948-0.07943-3.5742-49.88-4.2096 49.88z"/>
   <path d="m428.55 1.2495q5.4805 0 5.4805 6.9102v99.443q0 7.069-3.8919 7.069h-11.358v-113.42zm-0.8737 109.61q2.5417 0 2.5417-5.2422v-97.457q0-3.0977-1.5885-3.0977h-6.0365v105.8z"/>
   <path d="m459.37 1.2495q5.4805 0 5.4805 6.9102v99.443q0 7.069-3.8919 7.069h-7.1484q-3.8919 0-3.8919-7.069v-99.443q0-6.9102 5.4805-6.9102zm-0.8737 109.61q2.5417 0 2.5417-5.2422v-97.457q0-3.0977-1.5885-3.0977h-4.1302q-1.5885 0-1.5885 3.0977v97.457q0 5.2422 2.5417 5.2422z"/>
   <path d="m491.46 50.971 6.8307-49.721h3.8125l-8.1016 56.234 8.1016 57.188h-3.8125l-6.8307-49.007-6.9102 49.007h-3.8125l8.1016-57.188-8.1016-56.234h3.8125z"/>
   <path d="m527.36 1.2495q5.4805 0 5.4805 6.9102v99.443q0 7.069-3.8919 7.069h-7.1484q-3.8919 0-3.8919-7.069v-99.443q0-6.9102 5.4805-6.9102zm-0.8737 109.61q2.5417 0 2.5417-5.2422v-97.457q0-3.0977-1.5885-3.0977h-4.1302q-1.5885 0-1.5885 3.0977v97.457q0 5.2422 2.5417 5.2422z"/>
   <path d="m339.18 205.98h-7.5v-7.5h-7.5v-7.5h-7.5v-7.5h-7.5v-7.5h-7.5v-15h-7.5v45h-15v-82.5h15v7.5h7.5v7.5h7.5v7.5h7.5v7.5h7.5v15h7.5v-45h15v82.5z"/>
   <path d="m391.68 205.98h-22.5v-7.5h-7.5v-45h7.5v-7.5h30v7.5h7.5v22.5h-30v15h15v-7.5h15v15h-7.5v7.5zm-7.5-37.5h7.5v-7.5h-15v7.5z"/>
   <path d="m429.18 205.98h-7.5v-60h37.5v7.5h7.5v15h-15v-7.5h-15v45z"/>
   <path d="m526.68 205.98h-7.5v-7.5h-7.5v7.5h-22.5v-7.5h-7.5v-45h7.5v-7.5h22.5v7.5h7.5v-30h15v82.5zm-22.5-15h7.5v-7.5h7.5v-15h-7.5v-7.5h-15v30z"/>
  </g>
 </g>
</svg>
